# xmcd
#
# Track frame offsets:
#	183
#	11798
#	24293
#	37910
#	48278
#	62138
#	72643
#	83640
#	96928
#	112413
#	126743
#	138198
#	152565
#	163150
#	187900
#
# Disc length: 2678 seconds
# Revision: 0
# Processed by: cddbd v1.5.2PL0 Copyright (c) Steve Scherf et al.
# Submitted via: dBpowerAMP V12.0
#
DISCID=ce0a740f
DTITLE=Bettye Lavette - Nearer to You
DYEAR=1969
DGENRE=R&B
TTITLE0=He Made a Woman Out of Me
TTITLE1=Do Your Duty
TTITLE2=We Got to Slip Around
TTITLE3=Piece of My Heart
TTITLE4=Easier to Say (Than Do)
TTITLE5=My Train's Comin' in
TTITLE6=At the Mercy of a Man
TTITLE7=Let Me Down Easy
TTITLE8=Games People Play
TTITLE9=Nearer to You
TTITLE10=Love's Made a Fool Out of Me
TTITLE11=I'm in Love
TTITLE12=Let's Go, Let's Go, Let's Go
TTITLE13=Feelings
TTITLE14=Shoestring
EXTD=
EXTT0=
EXTT1=
EXTT2=
EXTT3=
EXTT4=
EXTT5=
EXTT6=
EXTT7=
EXTT8=
EXTT9=
EXTT10=
EXTT11=
EXTT12=
EXTT13=
EXTT14=
PLAYORDER=
